<mxfile host="Electron" agent="Mozilla/5.0 (Windows NT 10.0; Win64; x64) AppleWebKit/537.36 (KHTML, like Gecko) draw.io/24.7.17 Chrome/128.0.6613.36 Electron/32.0.1 Safari/537.36" version="24.7.17">
  <diagram name="Page-1" id="2YBvvXClWsGukQMizWep">
    <mxGraphModel dx="955" dy="565" grid="1" gridSize="10" guides="1" tooltips="1" connect="1" arrows="1" fold="1" page="1" pageScale="1" pageWidth="850" pageHeight="1100" math="0" shadow="0">
      <root>
        <mxCell id="0" />
        <mxCell id="1" parent="0" />
        <mxCell id="8cSc0hgjw7RaNV1kmR88-8" value="" style="endArrow=none;dashed=1;html=1;rounded=0;" edge="1" parent="1">
          <mxGeometry width="50" height="50" relative="1" as="geometry">
            <mxPoint x="634.74" y="830" as="sourcePoint" />
            <mxPoint x="634.74" y="330" as="targetPoint" />
          </mxGeometry>
        </mxCell>
        <mxCell id="8cSc0hgjw7RaNV1kmR88-7" value="" style="endArrow=none;dashed=1;html=1;rounded=0;" edge="1" parent="1">
          <mxGeometry width="50" height="50" relative="1" as="geometry">
            <mxPoint x="484.74" y="830" as="sourcePoint" />
            <mxPoint x="484.74" y="330" as="targetPoint" />
          </mxGeometry>
        </mxCell>
        <mxCell id="8cSc0hgjw7RaNV1kmR88-6" value="" style="endArrow=none;dashed=1;html=1;rounded=0;" edge="1" parent="1">
          <mxGeometry width="50" height="50" relative="1" as="geometry">
            <mxPoint x="354.74" y="830" as="sourcePoint" />
            <mxPoint x="354.74" y="330" as="targetPoint" />
          </mxGeometry>
        </mxCell>
        <mxCell id="8cSc0hgjw7RaNV1kmR88-5" value="" style="endArrow=none;dashed=1;html=1;rounded=0;" edge="1" parent="1">
          <mxGeometry width="50" height="50" relative="1" as="geometry">
            <mxPoint x="185" y="820" as="sourcePoint" />
            <mxPoint x="185" y="320" as="targetPoint" />
          </mxGeometry>
        </mxCell>
        <mxCell id="7lx7y_HW1eVYhGcbVzDC-8" value="" style="html=1;points=[[0,0,0,0,5],[0,1,0,0,-5],[1,0,0,0,5],[1,1,0,0,-5]];perimeter=orthogonalPerimeter;outlineConnect=0;targetShapes=umlLifeline;portConstraint=eastwest;newEdgeStyle={&quot;curved&quot;:0,&quot;rounded&quot;:0};" parent="1" vertex="1">
          <mxGeometry x="180" y="330" width="10" height="480" as="geometry" />
        </mxCell>
        <mxCell id="aM9ryv3xv72pqoxQDRHE-7" value="Rellenar inicio de sesion" style="html=1;verticalAlign=bottom;endArrow=block;edgeStyle=elbowEdgeStyle;elbow=vertical;curved=0;rounded=0;" parent="1" edge="1">
          <mxGeometry relative="1" as="geometry">
            <mxPoint x="190" y="360" as="sourcePoint" />
            <Array as="points">
              <mxPoint x="270" y="360" />
            </Array>
            <mxPoint x="350" y="360" as="targetPoint" />
          </mxGeometry>
        </mxCell>
        <mxCell id="aM9ryv3xv72pqoxQDRHE-8" value="Cancelar acceso&lt;div&gt;y refrescar pantalla&lt;/div&gt;" style="html=1;verticalAlign=bottom;endArrow=open;dashed=1;endSize=8;edgeStyle=elbowEdgeStyle;elbow=vertical;curved=0;rounded=0;" parent="1" edge="1">
          <mxGeometry relative="1" as="geometry">
            <mxPoint x="190" y="420" as="targetPoint" />
            <Array as="points">
              <mxPoint x="285" y="420" />
            </Array>
            <mxPoint x="350" y="420" as="sourcePoint" />
          </mxGeometry>
        </mxCell>
        <mxCell id="7lx7y_HW1eVYhGcbVzDC-10" value="Usuario" style="shape=umlActor;verticalLabelPosition=bottom;verticalAlign=top;html=1;" parent="1" vertex="1">
          <mxGeometry x="170" y="230" width="30" height="60" as="geometry" />
        </mxCell>
        <mxCell id="7lx7y_HW1eVYhGcbVzDC-20" value="Es valido" style="html=1;verticalAlign=bottom;endArrow=open;dashed=1;endSize=8;edgeStyle=elbowEdgeStyle;elbow=vertical;curved=0;rounded=0;" parent="1" edge="1" target="7lx7y_HW1eVYhGcbVzDC-32" source="7lx7y_HW1eVYhGcbVzDC-22">
          <mxGeometry relative="1" as="geometry">
            <mxPoint x="350" y="410" as="targetPoint" />
            <Array as="points">
              <mxPoint x="445" y="410" />
            </Array>
            <mxPoint x="500" y="410" as="sourcePoint" />
          </mxGeometry>
        </mxCell>
        <mxCell id="7lx7y_HW1eVYhGcbVzDC-21" value="Validar" style="html=1;verticalAlign=bottom;endArrow=block;edgeStyle=elbowEdgeStyle;elbow=vertical;curved=0;rounded=0;" parent="1" edge="1" target="7lx7y_HW1eVYhGcbVzDC-22">
          <mxGeometry relative="1" as="geometry">
            <mxPoint x="350" y="370" as="sourcePoint" />
            <Array as="points">
              <mxPoint x="430" y="370" />
            </Array>
            <mxPoint x="500" y="370" as="targetPoint" />
          </mxGeometry>
        </mxCell>
        <mxCell id="7lx7y_HW1eVYhGcbVzDC-22" value="" style="html=1;points=[[0,0,0,0,5],[0,1,0,0,-5],[1,0,0,0,5],[1,1,0,0,-5]];perimeter=orthogonalPerimeter;outlineConnect=0;targetShapes=umlLifeline;portConstraint=eastwest;newEdgeStyle={&quot;curved&quot;:0,&quot;rounded&quot;:0};" parent="1" vertex="1">
          <mxGeometry x="480" y="340" width="10" height="80" as="geometry" />
        </mxCell>
        <mxCell id="7lx7y_HW1eVYhGcbVzDC-23" value="Acceder a registro de datos" style="html=1;verticalAlign=bottom;endArrow=block;edgeStyle=elbowEdgeStyle;elbow=vertical;curved=0;rounded=0;" parent="1" edge="1">
          <mxGeometry relative="1" as="geometry">
            <mxPoint x="190" y="460" as="sourcePoint" />
            <Array as="points">
              <mxPoint x="270" y="460" />
            </Array>
            <mxPoint x="350" y="460" as="targetPoint" />
          </mxGeometry>
        </mxCell>
        <mxCell id="7lx7y_HW1eVYhGcbVzDC-24" value="Muestra pantalla&lt;div&gt;de registro de datos&lt;/div&gt;" style="html=1;verticalAlign=bottom;endArrow=open;dashed=1;endSize=8;edgeStyle=elbowEdgeStyle;elbow=vertical;curved=0;rounded=0;" parent="1" edge="1">
          <mxGeometry relative="1" as="geometry">
            <mxPoint x="190" y="510" as="targetPoint" />
            <Array as="points">
              <mxPoint x="285" y="510" />
            </Array>
            <mxPoint x="350" y="510" as="sourcePoint" />
          </mxGeometry>
        </mxCell>
        <mxCell id="7lx7y_HW1eVYhGcbVzDC-25" value="" style="html=1;points=[[0,0,0,0,5],[0,1,0,0,-5],[1,0,0,0,5],[1,1,0,0,-5]];perimeter=orthogonalPerimeter;outlineConnect=0;targetShapes=umlLifeline;portConstraint=eastwest;newEdgeStyle={&quot;curved&quot;:0,&quot;rounded&quot;:0};" parent="1" vertex="1">
          <mxGeometry x="480" y="540" width="10" height="70" as="geometry" />
        </mxCell>
        <mxCell id="7lx7y_HW1eVYhGcbVzDC-26" value="" style="html=1;points=[[0,0,0,0,5],[0,1,0,0,-5],[1,0,0,0,5],[1,1,0,0,-5]];perimeter=orthogonalPerimeter;outlineConnect=0;targetShapes=umlLifeline;portConstraint=eastwest;newEdgeStyle={&quot;curved&quot;:0,&quot;rounded&quot;:0};" parent="1" vertex="1">
          <mxGeometry x="630" y="630" width="10" height="160" as="geometry" />
        </mxCell>
        <mxCell id="7lx7y_HW1eVYhGcbVzDC-28" value="Llamar BD" style="html=1;verticalAlign=bottom;endArrow=block;edgeStyle=elbowEdgeStyle;elbow=vertical;curved=0;rounded=0;" parent="1" target="7lx7y_HW1eVYhGcbVzDC-26" edge="1">
          <mxGeometry relative="1" as="geometry">
            <mxPoint x="350" y="650" as="sourcePoint" />
            <Array as="points">
              <mxPoint x="435" y="650" />
            </Array>
            <mxPoint x="620" y="650" as="targetPoint" />
          </mxGeometry>
        </mxCell>
        <mxCell id="7lx7y_HW1eVYhGcbVzDC-29" value="Enviar datos" style="html=1;verticalAlign=bottom;endArrow=block;edgeStyle=elbowEdgeStyle;elbow=vertical;curved=0;rounded=0;" parent="1" edge="1">
          <mxGeometry relative="1" as="geometry">
            <mxPoint x="360" y="730" as="sourcePoint" />
            <Array as="points">
              <mxPoint x="445" y="730" />
            </Array>
            <mxPoint x="630" y="730" as="targetPoint" />
          </mxGeometry>
        </mxCell>
        <mxCell id="7lx7y_HW1eVYhGcbVzDC-30" value="Conexion BD" style="html=1;verticalAlign=bottom;endArrow=open;dashed=1;endSize=8;edgeStyle=elbowEdgeStyle;elbow=vertical;curved=0;rounded=0;" parent="1" edge="1">
          <mxGeometry relative="1" as="geometry">
            <mxPoint x="360" y="690" as="targetPoint" />
            <Array as="points">
              <mxPoint x="565" y="690" />
            </Array>
            <mxPoint x="630" y="690" as="sourcePoint" />
          </mxGeometry>
        </mxCell>
        <mxCell id="7lx7y_HW1eVYhGcbVzDC-31" value="Devolver cantidad de filas afectadas" style="html=1;verticalAlign=bottom;endArrow=open;dashed=1;endSize=8;edgeStyle=elbowEdgeStyle;elbow=vertical;curved=0;rounded=0;" parent="1" source="7lx7y_HW1eVYhGcbVzDC-26" edge="1">
          <mxGeometry relative="1" as="geometry">
            <mxPoint x="360" y="770" as="targetPoint" />
            <Array as="points">
              <mxPoint x="555" y="770" />
            </Array>
            <mxPoint x="620" y="770" as="sourcePoint" />
          </mxGeometry>
        </mxCell>
        <mxCell id="7lx7y_HW1eVYhGcbVzDC-32" value="" style="html=1;points=[[0,0,0,0,5],[0,1,0,0,-5],[1,0,0,0,5],[1,1,0,0,-5]];perimeter=orthogonalPerimeter;outlineConnect=0;targetShapes=umlLifeline;portConstraint=eastwest;newEdgeStyle={&quot;curved&quot;:0,&quot;rounded&quot;:0};" parent="1" vertex="1">
          <mxGeometry x="350" y="335" width="10" height="100" as="geometry" />
        </mxCell>
        <mxCell id="7lx7y_HW1eVYhGcbVzDC-34" value="Rellenar datos" style="html=1;verticalAlign=bottom;endArrow=block;edgeStyle=elbowEdgeStyle;elbow=vertical;curved=0;rounded=0;" parent="1" edge="1">
          <mxGeometry relative="1" as="geometry">
            <mxPoint x="190" y="550" as="sourcePoint" />
            <Array as="points">
              <mxPoint x="270" y="550" />
            </Array>
            <mxPoint x="350" y="550" as="targetPoint" />
          </mxGeometry>
        </mxCell>
        <mxCell id="7lx7y_HW1eVYhGcbVzDC-35" value="Validar que sean&lt;div&gt;campo concreto&lt;/div&gt;" style="html=1;verticalAlign=bottom;endArrow=block;edgeStyle=elbowEdgeStyle;elbow=vertical;curved=0;rounded=0;" parent="1" edge="1">
          <mxGeometry relative="1" as="geometry">
            <mxPoint x="350" y="560" as="sourcePoint" />
            <Array as="points">
              <mxPoint x="430" y="560" />
            </Array>
            <mxPoint x="480" y="560" as="targetPoint" />
          </mxGeometry>
        </mxCell>
        <mxCell id="7lx7y_HW1eVYhGcbVzDC-37" value="Formato concreto" style="html=1;verticalAlign=bottom;endArrow=open;dashed=1;endSize=8;edgeStyle=elbowEdgeStyle;elbow=vertical;curved=0;rounded=0;" parent="1" edge="1" target="7lx7y_HW1eVYhGcbVzDC-41">
          <mxGeometry relative="1" as="geometry">
            <mxPoint x="350" y="600.31" as="targetPoint" />
            <Array as="points" />
            <mxPoint x="480" y="600" as="sourcePoint" />
          </mxGeometry>
        </mxCell>
        <mxCell id="7lx7y_HW1eVYhGcbVzDC-38" value="Muestra mensaje&amp;nbsp;&lt;div&gt;de confiramacion&lt;/div&gt;" style="html=1;verticalAlign=bottom;endArrow=open;dashed=1;endSize=8;edgeStyle=elbowEdgeStyle;elbow=vertical;curved=0;rounded=0;" parent="1" edge="1">
          <mxGeometry x="0.0062" y="30" relative="1" as="geometry">
            <mxPoint x="190" y="790" as="targetPoint" />
            <Array as="points">
              <mxPoint x="395" y="790" />
            </Array>
            <mxPoint x="350" y="791" as="sourcePoint" />
            <mxPoint as="offset" />
          </mxGeometry>
        </mxCell>
        <mxCell id="7lx7y_HW1eVYhGcbVzDC-40" value="" style="html=1;points=[[0,0,0,0,5],[0,1,0,0,-5],[1,0,0,0,5],[1,1,0,0,-5]];perimeter=orthogonalPerimeter;outlineConnect=0;targetShapes=umlLifeline;portConstraint=eastwest;newEdgeStyle={&quot;curved&quot;:0,&quot;rounded&quot;:0};" parent="1" vertex="1">
          <mxGeometry x="350" y="450" width="10" height="80" as="geometry" />
        </mxCell>
        <mxCell id="7lx7y_HW1eVYhGcbVzDC-41" value="" style="html=1;points=[[0,0,0,0,5],[0,1,0,0,-5],[1,0,0,0,5],[1,1,0,0,-5]];perimeter=orthogonalPerimeter;outlineConnect=0;targetShapes=umlLifeline;portConstraint=eastwest;newEdgeStyle={&quot;curved&quot;:0,&quot;rounded&quot;:0};" parent="1" vertex="1">
          <mxGeometry x="350" y="540" width="10" height="270" as="geometry" />
        </mxCell>
        <mxCell id="8cSc0hgjw7RaNV1kmR88-1" value="UI / Aplicación" style="rounded=1;whiteSpace=wrap;html=1;" vertex="1" parent="1">
          <mxGeometry x="290" y="240" width="120" height="60" as="geometry" />
        </mxCell>
        <mxCell id="8cSc0hgjw7RaNV1kmR88-3" value="Reglas negocio" style="rounded=1;whiteSpace=wrap;html=1;" vertex="1" parent="1">
          <mxGeometry x="425" y="240" width="120" height="60" as="geometry" />
        </mxCell>
        <mxCell id="8cSc0hgjw7RaNV1kmR88-4" value="Base de datos" style="rounded=1;whiteSpace=wrap;html=1;" vertex="1" parent="1">
          <mxGeometry x="560" y="240" width="120" height="60" as="geometry" />
        </mxCell>
      </root>
    </mxGraphModel>
  </diagram>
</mxfile>
